<?xml version="1.0" encoding="UTF-8"?>
<svg id="Layer_1" xmlns="http://www.w3.org/2000/svg" viewBox="0 0 178.37 109.41">
  <defs>
    <style>
      .cls-1 {
        fill: #8a391d;
      }
    </style>
  </defs>
  <path class="cls-1" d="M159.41,19.23l-16-3.56-58.96-2.07-2.86-5.47C71.02,4.55,60.78.61,49.36.33,46.07.25,42.56,0,39.09,0l.02.26-5.04,4.44h-10.1c-.85.65-1.69,1.32-2.52,1.95-.24.19-.49.33-.73.46l.31,2.62,3.85,2.96-2.67,1.48v2.67H.59l-.59,16.3,10.67,9.78,5.63,20.44,7.11,23.41,13.33,13.33s17.48,8.59,18.67,9.19,23.11-1.48,23.11-1.48l16.89-12.74,10.67-11.85,13.63-14.52,10.37-.89,32.3.89,14.22-14.22,1.78-22.47-18.96-12.79Z"/>
</svg>